<svg xmlns="http://www.w3.org/2000/svg" viewBox="0 0 1024 1024" width="1024" height="1024">
  <rect width="1024" height="1024" rx="230" fill="#0B1F33"/>
  <g transform="translate(512 512) scale(1.1) translate(-497.576 -488.783)">
    <path fill="#FF6A1A" d="M720.829 317.514L722.008 317.413L722.377 317.97C721.881 319.529 711.979 334.209 710.591 336.309C685.875 373.724 662.807 413.369 636.773 449.813C644.707 460.953 652.196 472.348 659.965 483.6C700.162 541.816 738.487 601.356 777.912 660.089C749.744 659.541 720.679 659.939 692.428 659.99L550.75 660.153L477.259 659.994C493.37 632.279 512.331 602.817 529.373 575.518L619.338 575.525C602.877 550.056 586.733 524.384 570.91 498.514C565.172 489.298 552.59 471.051 548.843 461.936C552.185 454.138 568.29 430.604 573.488 422.512L621.739 346.219C626.889 343.868 643.893 339.685 650.649 337.736L720.829 317.514Z"/>
    <path fill="#FFFFFF" d="M596.571 352.638L596.715 353.223C591.449 361.981 584.784 371.69 579.19 380.369L537.429 444.837L398.605 660.056L217.241 659.996C217.37 657.334 265.183 583.394 270.704 574.671C297.589 575.156 325.458 574.477 352.486 574.516C366.222 555.086 379.154 534.148 392 514.054L435.44 446.393L457.517 411.977C462.439 404.318 467.475 395.979 472.742 388.623C484.171 384.697 498.096 381.128 509.892 377.674L596.571 352.638Z"/>
  </g>
</svg>
